  0
SECTION
  2
HEADER
  9
$ACADVER
  1
AC1009
  9
$DWGCODEPAGE
  3
mac-roman
  9
$INSBASE
 10
0.0
 20
0.0
 30
0.0
  9
$EXTMIN
 10
-11322.4191001853
 20
0.0
 30
0.0
  9
$EXTMAX
 10
-10660.22591366092
 20
572.1871772279566
 30
0.0
  9
$LIMMIN
 10
0.0
 20
0.0
  9
$LIMMAX
 10
12.0
 20
9.0
  9
$ORTHOMODE
 70
     0
  9
$REGENMODE
 70
     1
  9
$FILLMODE
 70
     1
  9
$QTEXTMODE
 70
     0
  9
$MIRRTEXT
 70
     1
  9
$DRAGMODE
 70
     2
  9
$LTSCALE
 40
1.0
  9
$OSMODE
 70
    37
  9
$ATTMODE
 70
     1
  9
$TEXTSIZE
 40
0.2
  9
$TRACEWID
 40
0.05
  9
$TEXTSTYLE
  7
STANDARD
  9
$CLAYER
  8
DEFAULT
  9
$CELTYPE
  6
BYLAYER
  9
$CECOLOR
 62
   256
  9
$DIMSCALE
 40
1.0
  9
$DIMASZ
 40
0.18
  9
$DIMEXO
 40
0.0625
  9
$DIMDLI
 40
0.38
  9
$DIMRND
 40
0.0
  9
$DIMDLE
 40
0.0
  9
$DIMEXE
 40
0.18
  9
$DIMTP
 40
0.0
  9
$DIMTM
 40
0.0
  9
$DIMTXT
 40
0.18
  9
$DIMCEN
 40
0.09
  9
$DIMTSZ
 40
0.0
  9
$DIMTOL
 70
     0
  9
$DIMLIM
 70
     0
  9
$DIMTIH
 70
     1
  9
$DIMTOH
 70
     1
  9
$DIMSE1
 70
     0
  9
$DIMSE2
 70
     0
  9
$DIMTAD
 70
     0
  9
$DIMZIN
 70
     0
  9
$DIMBLK
  1

  9
$DIMASO
 70
     1
  9
$DIMSHO
 70
     1
  9
$DIMPOST
  1

  9
$DIMAPOST
  1

  9
$DIMALT
 70
     0
  9
$DIMALTD
 70
     2
  9
$DIMALTF
 40
25.4
  9
$DIMLFAC
 40
1.0
  9
$DIMTOFL
 70
     0
  9
$DIMTVP
 40
0.0
  9
$DIMTIX
 70
     0
  9
$DIMSOXD
 70
     0
  9
$DIMSAH
 70
     0
  9
$DIMBLK1
  1

  9
$DIMBLK2
  1

  9
$DIMSTYLE
  2
STANDARD
  9
$DIMCLRD
 70
     0
  9
$DIMCLRE
 70
     0
  9
$DIMCLRT
 70
     0
  9
$DIMTFAC
 40
1.0
  9
$DIMGAP
 40
0.09
  9
$LUNITS
 70
     2
  9
$LUPREC
 70
     3
  9
$SKETCHINC
 40
0.1
  9
$FILLETRAD
 40
0.5
  9
$AUNITS
 70
     0
  9
$AUPREC
 70
     0
  9
$MENU
  1
.
  9
$ELEVATION
 40
0.0
  9
$PELEVATION
 40
0.0
  9
$THICKNESS
 40
0.0
  9
$LIMCHECK
 70
     0
  9
$CHAMFERA
 40
0.0
  9
$CHAMFERB
 40
0.0
  9
$SKPOLY
 70
     0
  9
$TDCREATE
 40
2458814.378055556
  9
$TDUPDATE
 40
2458814.378078704
  9
$TDINDWG
 40
0.0000000116
  9
$TDUSRTIMER
 40
0.0000000116
  9
$USRTIMER
 70
     1
  9
$ANGBASE
 50
0.0
  9
$ANGDIR
 70
     0
  9
$PDMODE
 70
     0
  9
$PDSIZE
 40
0.0
  9
$PLINEWID
 40
0.0
  9
$COORDS
 70
     1
  9
$SPLFRAME
 70
     0
  9
$SPLINETYPE
 70
     6
  9
$SPLINESEGS
 70
     8
  9
$ATTDIA
 70
     0
  9
$ATTREQ
 70
     1
  9
$HANDLING
 70
     1
  9
$HANDSEED
  5
13F
  9
$SURFTAB1
 70
     6
  9
$SURFTAB2
 70
     6
  9
$SURFTYPE
 70
     6
  9
$SURFU
 70
     6
  9
$SURFV
 70
     6
  9
$UCSNAME
  2

  9
$UCSORG
 10
0.0
 20
0.0
 30
0.0
  9
$UCSXDIR
 10
1.0
 20
0.0
 30
0.0
  9
$UCSYDIR
 10
0.0
 20
1.0
 30
0.0
  9
$PUCSNAME
  2

  9
$PUCSORG
 10
0.0
 20
0.0
 30
0.0
  9
$PUCSXDIR
 10
1.0
 20
0.0
 30
0.0
  9
$PUCSYDIR
 10
0.0
 20
1.0
 30
0.0
  9
$USERI1
 70
     0
  9
$USERI2
 70
     0
  9
$USERI3
 70
     0
  9
$USERI4
 70
     0
  9
$USERI5
 70
     0
  9
$USERR1
 40
0.0
  9
$USERR2
 40
0.0
  9
$USERR3
 40
0.0
  9
$USERR4
 40
0.0
  9
$USERR5
 40
0.0
  9
$WORLDVIEW
 70
     1
  9
$SHADEDGE
 70
     3
  9
$SHADEDIF
 70
    70
  9
$TILEMODE
 70
     1
  9
$MAXACTVP
 70
    64
  9
$PLIMCHECK
 70
     0
  9
$PEXTMIN
 10
1.000000000000000E+20
 20
1.000000000000000E+20
 30
1.000000000000000E+20
  9
$PEXTMAX
 10
-1.000000000000000E+20
 20
-1.000000000000000E+20
 30
-1.000000000000000E+20
  9
$PLIMMIN
 10
0.0
 20
0.0
  9
$PLIMMAX
 10
12.0
 20
9.0
  9
$UNITMODE
 70
     0
  9
$VISRETAIN
 70
     1
  9
$PLINEGEN
 70
     0
  9
$PSLTSCALE
 70
     1
  0
ENDSEC
  0
SECTION
  2
TABLES
  0
TABLE
  2
VPORT
 70
     1
  0
VPORT
  2
*ACTIVE
 70
     0
 10
0.0
 20
0.0
 11
1.0
 21
1.0
 12
-10991.32250692311
 22
286.0935886139783
 13
0.0
 23
0.0
 14
0.5
 24
0.5
 15
0.5
 25
0.5
 16
0.0
 26
0.0
 36
1.0
 17
0.0
 27
0.0
 37
0.0
 40
583.6309207725158
 41
1.157301688815315
 42
50.0
 43
0.0
 44
0.0
 50
0.0
 51
0.0
 71
     0
 72
   100
 73
     1
 74
     3
 75
     0
 76
     0
 77
     0
 78
     0
  0
ENDTAB
  0
TABLE
  2
LTYPE
 70
     1
  0
LTYPE
  2
CONTINUOUS
 70
     0
  3
Solid line
 72
    65
 73
     0
 40
0.0
  0
ENDTAB
  0
TABLE
  2
LAYER
 70
     2
  0
LAYER
  2
0
 70
     0
 62
     7
  6
CONTINUOUS
  0
LAYER
  2
DEFAULT
 70
     0
 62
     7
  6
CONTINUOUS
  0
ENDTAB
  0
TABLE
  2
STYLE
 70
     1
  0
STYLE
  2
STANDARD
 70
     0
 40
0.0
 41
1.0
 50
0.0
 71
     0
 42
0.2
  3
txt
  4

  0
ENDTAB
  0
TABLE
  2
VIEW
 70
     0
  0
ENDTAB
  0
TABLE
  2
UCS
 70
     0
  0
ENDTAB
  0
TABLE
  2
APPID
 70
     1
  0
APPID
  2
ACAD
 70
     0
  0
ENDTAB
  0
TABLE
  2
DIMSTYLE
 70
     1
  0
DIMSTYLE
  2
STANDARD
 70
     0
  3

  4

  5

  6

  7

 40
1.0
 41
0.18
 42
0.0625
 43
0.38
 44
0.18
 45
0.0
 46
0.0
 47
0.0
 48
0.0
140
0.18
141
0.09
142
0.0
143
25.4
144
1.0
145
0.0
146
1.0
147
0.09
 71
     0
 72
     0
 73
     1
 74
     1
 75
     0
 76
     0
 77
     0
 78
     0
170
     0
171
     2
172
     0
173
     0
174
     0
175
     0
176
     0
177
     0
178
     0
  0
ENDTAB
  0
ENDSEC
  0
SECTION
  2
BLOCKS
  0
BLOCK
  8
0
  2
$MODEL_SPACE
 70
     0
 10
0.0
 20
0.0
 30
0.0
  3
$MODEL_SPACE
  1

  0
ENDBLK
  5
21
  8
0
  0
BLOCK
 67
     1
  8
0
  2
$PAPER_SPACE
 70
     0
 10
0.0
 20
0.0
 30
0.0
  3
$PAPER_SPACE
  1

  0
ENDBLK
  5
1D
 67
     1
  8
0
  0
ENDSEC
  0
SECTION
  2
ENTITIES
  0
CIRCLE
  5
6F
  8
DEFAULT
 10
-10728.40643753298
 20
55.17275424923537
 30
0.0
 40
4.5
  0
CIRCLE
  5
70
  8
DEFAULT
 10
-11254.23857631318
 20
55.17275424923355
 30
0.0
 40
4.5
  0
LINE
  5
71
  8
DEFAULT
 10
-10799.04177650053
 20
0.0000000000001421
 30
0.0
 11
-10991.32250692308
 21
0.0
 31
0.0
  0
LINE
  5
72
  8
DEFAULT
 10
-10794.65135049853
 20
0.0746729620782389
 30
0.0
 11
-10799.04177650053
 21
0.0000000000001421
 31
0.0
  0
LINE
  5
73
  8
DEFAULT
 10
-10790.26600321892
 20
0.2986054687119122
 30
0.0
 11
-10794.65135049853
 21
0.0746729620782389
 31
0.0
  0
LINE
  5
74
  8
DEFAULT
 10
-10785.89080750917
 20
0.6715384810209457
 30
0.0
 11
-10790.26600321892
 21
0.2986054687119122
 31
0.0
  0
LINE
  5
75
  8
DEFAULT
 10
-10781.53082447369
 20
1.193040600494271
 30
0.0
 11
-10785.89080750917
 21
0.6715384810209457
 31
0.0
  0
LINE
  5
76
  8
DEFAULT
 10
-10777.19109761929
 20
1.862508568020033
 30
0.0
 11
-10781.53082447369
 21
1.193040600494271
 31
0.0
  0
LINE
  5
77
  8
DEFAULT
 10
-10772.87664702101
 20
2.679167961718562
 30
0.0
 11
-10777.19109761929
 21
1.862508568020033
 31
0.0
  0
LINE
  5
78
  8
DEFAULT
 10
-10768.59246351501
 20
3.642074092772418
 30
0.0
 11
-10772.87664702101
 21
2.679167961718562
 31
0.0
  0
LINE
  5
79
  8
DEFAULT
 10
-10764.34350292533
 20
4.750113098215692
 30
0.0
 11
-10768.59246351501
 21
3.642074092772418
 31
0.0
  0
LINE
  5
7A
  8
DEFAULT
 10
-10760.1346803311
 20
6.002003229419685
 30
0.0
 11
-10764.34350292533
 21
4.750113098215692
 31
0.0
  0
LINE
  5
7B
  8
DEFAULT
 10
-10755.97086438096
 20
7.396296334784509
 30
0.0
 11
-10760.1346803311
 21
6.002003229419685
 31
0.0
  0
LINE
  5
7C
  8
DEFAULT
 10
-10751.85687166111
 20
8.931379534919515
 30
0.0
 11
-10755.97086438096
 21
7.396296334784509
 31
0.0
  0
LINE
  5
7D
  8
DEFAULT
 10
-10747.79746112363
 20
10.60547708837835
 30
0.0
 11
-10751.85687166111
 21
8.931379534919515
 31
0.0
  0
LINE
  5
7E
  8
DEFAULT
 10
-10743.79732858145
 20
12.41665244578611
 30
0.0
 11
-10747.79746112363
 21
10.60547708837835
 31
0.0
  0
LINE
  5
7F
  8
DEFAULT
 10
-10739.86110127637
 20
14.36281048998607
 30
0.0
 11
-10743.79732858145
 21
12.41665244578611
 31
0.0
  0
LINE
  5
80
  8
DEFAULT
 10
-10735.99333252638
 20
16.44169995961337
 30
0.0
 11
-10739.86110127637
 21
14.36281048998607
 31
0.0
  0
LINE
  5
81
  8
DEFAULT
 10
-10732.19849645855
 20
18.6509160532904
 30
0.0
 11
-10735.99333252638
 21
16.44169995961337
 31
0.0
  0
LINE
  5
82
  8
DEFAULT
 10
-10728.48098283342
 20
20.98790321143443
 30
0.0
 11
-10732.19849645855
 21
18.6509160532904
 31
0.0
  0
LINE
  5
83
  8
DEFAULT
 10
-10724.84509196713
 20
23.44995807245793
 30
0.0
 11
-10728.48098283342
 21
20.98790321143443
 31
0.0
  0
LINE
  5
84
  8
DEFAULT
 10
-10721.29502975684
 20
26.03423259994165
 30
0.0
 11
-10724.84509196713
 21
23.44995807245793
 31
0.0
  0
LINE
  5
85
  8
DEFAULT
 10
-10717.83490281555
 20
28.7377373771636
 30
0.0
 11
-10721.29502975684
 21
26.03423259994165
 31
0.0
  0
LINE
  5
86
  8
DEFAULT
 10
-10714.46871372164
 20
31.55734506517327
 30
0.0
 11
-10717.83490281555
 21
28.7377373771636
 31
0.0
  0
LINE
  5
87
  8
DEFAULT
 10
-10711.20035638878
 20
34.4897940204099
 30
0.0
 11
-10714.46871372164
 21
31.55734506517327
 31
0.0
  0
LINE
  5
88
  8
DEFAULT
 10
-10708.03361156163
 20
37.53169206768106
 30
0.0
 11
-10711.20035638878
 21
34.4897940204099
 31
0.0
  0
LINE
  5
89
  8
DEFAULT
 10
-10704.9721424423
 20
40.67952042413593
 30
0.0
 11
-10708.03361156163
 21
37.53169206768106
 31
0.0
  0
LINE
  5
8A
  8
DEFAULT
 10
-10702.01949045292
 20
43.92963776969522
 30
0.0
 11
-10704.9721424423
 21
40.67952042413593
 31
0.0
  0
LINE
  5
8B
  8
DEFAULT
 10
-10699.17907113899
 20
47.27828445922972
 30
0.0
 11
-10702.01949045292
 21
43.92963776969522
 31
0.0
  0
LINE
  5
8C
  8
DEFAULT
 10
-10696.45417021837
 20
50.72158687161158
 30
0.0
 11
-10699.17907113899
 21
47.27828445922972
 31
0.0
  0
LINE
  5
8D
  8
DEFAULT
 10
-10693.84793978048
 20
54.25556189061214
 30
0.0
 11
-10696.45417021837
 21
50.72158687161158
 31
0.0
  0
LINE
  5
8E
  8
DEFAULT
 10
-10691.36339464003
 20
57.87612151245879
 30
0.0
 11
-10693.84793978048
 21
54.25556189061214
 31
0.0
  0
LINE
  5
8F
  8
DEFAULT
 10
-10689.00340884955
 20
61.57907757472549
 30
0.0
 11
-10691.36339464003
 21
57.87612151245879
 31
0.0
  0
LINE
  5
90
  8
DEFAULT
 10
-10686.77071237483
 20
65.36014660108026
 30
0.0
 11
-10689.00340884955
 21
61.57907757472549
 31
0.0
  0
LINE
  5
91
  8
DEFAULT
 10
-10684.66788793689
 20
69.21495475629229
 30
0.0
 11
-10686.77071237483
 21
65.36014660108026
 31
0.0
  0
LINE
  5
92
  8
DEFAULT
 10
-10682.69736802441
 20
73.13904290576261
 30
0.0
 11
-10684.66788793689
 21
69.21495475629229
 31
0.0
  0
LINE
  5
93
  8
DEFAULT
 10
-10680.86143207988
 20
77.12787177372647
 30
0.0
 11
-10682.69736802441
 21
73.13904290576261
 31
0.0
  0
LINE
  5
94
  8
DEFAULT
 10
-10679.16220386283
 20
81.17682719416092
 30
0.0
 11
-10680.86143207988
 21
77.12787177372647
 31
0.0
  0
LINE
  5
95
  8
DEFAULT
 10
-10677.60164899307
 20
85.28122544832341
 30
0.0
 11
-10679.16220386283
 21
81.17682719416092
 31
0.0
  0
LINE
  5
96
  8
DEFAULT
 10
-10676.18157267697
 20
89.43631868274727
 30
0.0
 11
-10677.60164899307
 21
85.28122544832341
 31
0.0
  0
LINE
  5
97
  8
DEFAULT
 10
-10674.90361761923
 20
93.63730040142619
 30
0.0
 11
-10676.18157267697
 21
89.43631868274727
 31
0.0
  0
LINE
  5
98
  8
DEFAULT
 10
-10671.52984154989
 20
106.2596305581284
 30
0.0
 11
-10674.90361761923
 21
93.63730040142619
 31
0.0
  0
LINE
  5
99
  8
DEFAULT
 10
-10668.5901931733
 20
118.9900685306744
 30
0.0
 11
-10671.52984154989
 21
106.2596305581284
 31
0.0
  0
LINE
  5
9A
  8
DEFAULT
 10
-10666.08811925916
 20
131.813687742074
 30
0.0
 11
-10668.5901931733
 21
118.9900685306744
 31
0.0
  0
LINE
  5
9B
  8
DEFAULT
 10
-10664.02655351634
 20
144.7154523593206
 30
0.0
 11
-10666.08811925916
 21
131.813687742074
 31
0.0
  0
LINE
  5
9C
  8
DEFAULT
 10
-10662.4079131531
 20
157.6802349230701
 30
0.0
 11
-10664.02655351634
 21
144.7154523593206
 31
0.0
  0
LINE
  5
9D
  8
DEFAULT
 10
-10661.23409604287
 20
170.6928340847494
 30
0.0
 11
-10662.4079131531
 21
157.6802349230701
 31
0.0
  0
LINE
  5
9E
  8
DEFAULT
 10
-10660.50647849898
 20
183.7379924303057
 30
0.0
 11
-10661.23409604287
 21
170.6928340847494
 31
0.0
  0
LINE
  5
9F
  8
DEFAULT
 10
-10660.22591366092
 20
196.8004143696876
 30
0.0
 11
-10660.50647849898
 21
183.7379924303057
 31
0.0
  0
LINE
  5
A0
  8
DEFAULT
 10
-10660.39273049401
 20
209.8647840710935
 30
0.0
 11
-10660.22591366092
 21
196.8004143696876
 31
0.0
  0
LINE
  5
A1
  8
DEFAULT
 10
-10661.00673340369
 20
222.9157834189484
 30
0.0
 11
-10660.39273049401
 21
209.8647840710935
 31
0.0
  0
LINE
  5
A2
  8
DEFAULT
 10
-10662.06720246488
 20
235.938109974563
 30
0.0
 11
-10661.00673340369
 21
222.9157834189484
 31
0.0
  0
LINE
  5
A3
  8
DEFAULT
 10
-10663.57289426607
 20
248.9164949184085
 30
0.0
 11
-10662.06720246488
 21
235.938109974563
 31
0.0
  0
LINE
  5
A4
  8
DEFAULT
 10
-10665.52204336725
 20
261.8357209529738
 30
0.0
 11
-10663.57289426607
 21
248.9164949184085
 31
0.0
  0
LINE
  5
A5
  8
DEFAULT
 10
-10667.91236436989
 20
274.6806401452129
 30
0.0
 11
-10665.52204336725
 21
261.8357209529738
 31
0.0
  0
LINE
  5
A6
  8
DEFAULT
 10
-10670.74105459662
 20
287.4361916876598
 30
0.0
 11
-10667.91236436989
 21
274.6806401452129
 31
0.0
  0
LINE
  5
A7
  8
DEFAULT
 10
-10674.00479737738
 20
300.0874195573908
 30
0.0
 11
-10670.74105459662
 21
287.4361916876598
 31
0.0
  0
LINE
  5
A8
  8
DEFAULT
 10
-10677.69976593825
 20
312.6194900521227
 30
0.0
 11
-10674.00479737738
 21
300.0874195573908
 31
0.0
  0
LINE
  5
A9
  8
DEFAULT
 10
-10681.82162788843
 20
325.0177091828904
 30
0.0
 11
-10677.69976593825
 21
312.6194900521227
 31
0.0
  0
LINE
  5
AA
  8
DEFAULT
 10
-10686.36555029992
 20
337.2675399029093
 30
0.0
 11
-10681.82162788843
 21
325.0177091828904
 31
0.0
  0
LINE
  5
AB
  8
DEFAULT
 10
-10691.32620537429
 20
349.3546191524204
 30
0.0
 11
-10686.36555029992
 21
337.2675399029093
 31
0.0
  0
LINE
  5
AC
  8
DEFAULT
 10
-10696.6977766895
 20
361.2647746995336
 30
0.0
 11
-10691.32620537429
 21
349.3546191524204
 31
0.0
  0
LINE
  5
AD
  8
DEFAULT
 10
-10702.47396601976
 20
372.9840417573249
 30
0.0
 11
-10696.6977766895
 21
361.2647746995336
 31
0.0
  0
LINE
  5
AE
  8
DEFAULT
 10
-10708.64800072024
 20
384.4986793576999
 30
0.0
 11
-10702.47396601976
 21
372.9840417573249
 31
0.0
  0
LINE
  5
AF
  8
DEFAULT
 10
-10715.21264166813
 20
395.7951864628288
 30
0.0
 11
-10708.64800072024
 21
384.4986793576999
 31
0.0
  0
LINE
  5
B0
  8
DEFAULT
 10
-10722.16019175048
 20
406.86031779526
 30
0.0
 11
-10715.21264166813
 21
395.7951864628288
 31
0.0
  0
LINE
  5
B1
  8
DEFAULT
 10
-10729.48250488928
 20
417.6810993681526
 30
0.0
 11
-10722.16019175048
 21
406.86031779526
 31
0.0
  0
LINE
  5
B2
  8
DEFAULT
 10
-10737.17099559271
 20
428.2448436974154
 30
0.0
 11
-10729.48250488928
 21
417.6810993681526
 31
0.0
  0
LINE
  5
B3
  8
DEFAULT
 10
-10745.2166490218
 20
438.5391646779223
 30
0.0
 11
-10737.17099559271
 21
428.2448436974154
 31
0.0
  0
LINE
  5
B4
  8
DEFAULT
 10
-10753.6100315604
 20
448.5519921063534
 30
0.0
 11
-10745.2166490218
 21
438.5391646779223
 31
0.0
  0
LINE
  5
B5
  8
DEFAULT
 10
-10762.34130187619
 20
458.2715858336404
 30
0.0
 11
-10753.6100315604
 21
448.5519921063534
 31
0.0
  0
LINE
  5
B6
  8
DEFAULT
 10
-10771.40022245974
 20
467.6865495304194
 30
0.0
 11
-10762.34130187619
 21
458.2715858336404
 31
0.0
  0
LINE
  5
B7
  8
DEFAULT
 10
-10780.77617162815
 20
476.7858440493507
 30
0.0
 11
-10771.40022245974
 21
467.6865495304194
 31
0.0
  0
LINE
  5
B8
  8
DEFAULT
 10
-10790.45815597903
 20
485.5588003686383
 30
0.0
 11
-10780.77617162815
 21
476.7858440493507
 31
0.0
  0
LINE
  5
B9
  8
DEFAULT
 10
-10800.43482328042
 20
493.9951321015761
 30
0.0
 11
-10790.45815597903
 21
485.5588003686383
 31
0.0
  0
LINE
  5
BA
  8
DEFAULT
 10
-10810.69447578139
 20
502.084947557446
 30
0.0
 11
-10800.43482328042
 21
493.9951321015761
 31
0.0
  0
LINE
  5
BB
  8
DEFAULT
 10
-10821.2250839278
 20
509.8187613396341
 30
0.0
 11
-10810.69447578139
 21
502.084947557446
 31
0.0
  0
LINE
  5
BC
  8
DEFAULT
 10
-10832.01430046706
 20
517.187505467361
 30
0.0
 11
-10821.2250839278
 21
509.8187613396341
 31
0.0
  0
LINE
  5
BD
  8
DEFAULT
 10
-10843.04947492541
 20
524.1825400079879
 30
0.0
 11
-10832.01430046706
 21
517.187505467361
 31
0.0
  0
LINE
  5
BE
  8
DEFAULT
 10
-10854.31766844078
 20
530.7956632074321
 30
0.0
 11
-10843.04947492541
 21
524.1825400079879
 31
0.0
  0
LINE
  5
BF
  8
DEFAULT
 10
-10865.8056689337
 20
537.0191211068118
 30
0.0
 11
-10854.31766844078
 21
530.7956632074321
 31
0.0
  0
LINE
  5
C0
  8
DEFAULT
 10
-10877.50000659866
 20
542.8456166340483
 30
0.0
 11
-10865.8056689337
 21
537.0191211068118
 31
0.0
  0
LINE
  5
C1
  8
DEFAULT
 10
-10889.38696969752
 20
548.2683181597617
 30
0.0
 11
-10877.50000659866
 21
542.8456166340483
 31
0.0
  0
LINE
  5
C2
  8
DEFAULT
 10
-10901.45262063678
 20
553.2808675074313
 30
0.0
 11
-10889.38696969752
 21
548.2683181597617
 31
0.0
  0
LINE
  5
C3
  8
DEFAULT
 10
-10913.68281230946
 20
557.877387408426
 30
0.0
 11
-10901.45262063678
 21
553.2808675074313
 31
0.0
  0
LINE
  5
C4
  8
DEFAULT
 10
-10926.06320468281
 20
562.0524883931649
 30
0.0
 11
-10913.68281230946
 21
557.877387408426
 31
0.0
  0
LINE
  5
C5
  8
DEFAULT
 10
-10933.1201555588
 20
564.1661943046454
 30
0.0
 11
-10926.06320468281
 21
562.0524883931649
 31
0.0
  0
LINE
  5
C6
  8
DEFAULT
 10
-10940.24532431046
 20
566.0370974573818
 30
0.0
 11
-10933.1201555588
 21
564.1661943046454
 31
0.0
  0
LINE
  5
C7
  8
DEFAULT
 10
-10947.43035966218
 20
567.6630050011604
 30
0.0
 11
-10940.24532431046
 21
566.0370974573818
 31
0.0
  0
LINE
  5
C8
  8
DEFAULT
 10
-10954.66684016988
 20
569.0420112404886
 30
0.0
 11
-10947.43035966218
 21
567.6630050011604
 31
0.0
  0
LINE
  5
C9
  8
DEFAULT
 10
-10961.94628409157
 20
570.1724998682247
 30
0.0
 11
-10954.66684016988
 21
569.0420112404886
 31
0.0
  0
LINE
  5
CA
  8
DEFAULT
 10
-10969.26015932865
 20
571.0531458600213
 30
0.0
 11
-10961.94628409157
 21
570.1724998682247
 31
0.0
  0
LINE
  5
CB
  8
DEFAULT
 10
-10976.59989342623
 20
571.6829170273609
 30
0.0
 11
-10969.26015932865
 21
571.0531458600213
 31
0.0
  0
LINE
  5
CC
  8
DEFAULT
 10
-10983.95688362075
 20
572.061075227365
 30
0.0
 11
-10976.59989342623
 21
571.6829170273609
 31
0.0
  0
LINE
  5
CD
  8
DEFAULT
 10
-10991.32250692308
 20
572.1871772279566
 30
0.0
 11
-10983.95688362075
 21
572.061075227365
 31
0.0
  0
LINE
  5
CE
  8
DEFAULT
 10
-10998.68813022542
 20
572.0610752273649
 30
0.0
 11
-10991.32250692308
 21
572.1871772279566
 31
0.0
  0
LINE
  5
CF
  8
DEFAULT
 10
-11006.04512041993
 20
571.682917027361
 30
0.0
 11
-10998.68813022542
 21
572.0610752273649
 31
0.0
  0
LINE
  5
D0
  8
DEFAULT
 10
-11013.38485451752
 20
571.0531458600213
 30
0.0
 11
-11006.04512041993
 21
571.682917027361
 31
0.0
  0
LINE
  5
D1
  8
DEFAULT
 10
-11020.69872975459
 20
570.1724998682247
 30
0.0
 11
-11013.38485451752
 21
571.0531458600213
 31
0.0
  0
LINE
  5
D2
  8
DEFAULT
 10
-11027.97817367628
 20
569.0420112404886
 30
0.0
 11
-11020.69872975459
 21
570.1724998682247
 31
0.0
  0
LINE
  5
D3
  8
DEFAULT
 10
-11035.21465418398
 20
567.6630050011604
 30
0.0
 11
-11027.97817367628
 21
569.0420112404886
 31
0.0
  0
LINE
  5
D4
  8
DEFAULT
 10
-11042.3996895357
 20
566.037097457382
 30
0.0
 11
-11035.21465418398
 21
567.6630050011604
 31
0.0
  0
LINE
  5
D5
  8
DEFAULT
 10
-11049.52485828736
 20
564.1661943046455
 30
0.0
 11
-11042.3996895357
 21
566.037097457382
 31
0.0
  0
LINE
  5
D6
  8
DEFAULT
 10
-11056.58180916335
 20
562.0524883931653
 30
0.0
 11
-11049.52485828736
 21
564.1661943046455
 31
0.0
  0
LINE
  5
D7
  8
DEFAULT
 10
-11068.96220153671
 20
557.8773874084332
 30
0.0
 11
-11056.58180916335
 21
562.0524883931653
 31
0.0
  0
LINE
  5
D8
  8
DEFAULT
 10
-11081.1923932094
 20
553.2808675074457
 30
0.0
 11
-11068.96220153671
 21
557.8773874084332
 31
0.0
  0
LINE
  5
D9
  8
DEFAULT
 10
-11093.25804414866
 20
548.2683181597829
 30
0.0
 11
-11081.1923932094
 21
553.2808675074457
 31
0.0
  0
LINE
  5
DA
  8
DEFAULT
 10
-11105.14500724753
 20
542.8456166340756
 30
0.0
 11
-11093.25804414866
 21
548.2683181597829
 31
0.0
  0
LINE
  5
DB
  8
DEFAULT
 10
-11116.83934491249
 20
537.0191211068446
 30
0.0
 11
-11105.14500724753
 21
542.8456166340756
 31
0.0
  0
LINE
  5
DC
  8
DEFAULT
 10
-11128.32734540542
 20
530.7956632074698
 30
0.0
 11
-11116.83934491249
 21
537.0191211068446
 31
0.0
  0
LINE
  5
DD
  8
DEFAULT
 10
-11139.59553892079
 20
524.1825400080302
 30
0.0
 11
-11128.32734540542
 21
530.7956632074698
 31
0.0
  0
LINE
  5
DE
  8
DEFAULT
 10
-11150.63071337915
 20
517.187505467407
 30
0.0
 11
-11139.59553892079
 21
524.1825400080302
 31
0.0
  0
LINE
  5
DF
  8
DEFAULT
 10
-11161.41992991841
 20
509.8187613396835
 30
0.0
 11
-11150.63071337915
 21
517.187505467407
 31
0.0
  0
LINE
  5
E0
  8
DEFAULT
 10
-11171.95053806482
 20
502.0849475574983
 30
0.0
 11
-11161.41992991841
 21
509.8187613396835
 31
0.0
  0
LINE
  5
E1
  8
DEFAULT
 10
-11182.2101905658
 20
493.9951321016308
 30
0.0
 11
-11171.95053806482
 21
502.0849475574983
 31
0.0
  0
LINE
  5
E2
  8
DEFAULT
 10
-11192.1868578672
 20
485.558800368695
 30
0.0
 11
-11182.2101905658
 21
493.9951321016308
 31
0.0
  0
LINE
  5
E3
  8
DEFAULT
 10
-11201.86884221808
 20
476.7858440494085
 30
0.0
 11
-11192.1868578672
 21
485.558800368695
 31
0.0
  0
LINE
  5
E4
  8
DEFAULT
 10
-11211.24479138649
 20
467.6865495304783
 30
0.0
 11
-11201.86884221808
 21
476.7858440494085
 31
0.0
  0
LINE
  5
E5
  8
DEFAULT
 10
-11220.30371197005
 20
458.2715858336998
 30
0.0
 11
-11211.24479138649
 21
467.6865495304783
 31
0.0
  0
LINE
  5
E6
  8
DEFAULT
 10
-11229.03498228584
 20
448.5519921064129
 30
0.0
 11
-11220.30371197005
 21
458.2715858336998
 31
0.0
  0
LINE
  5
E7
  8
DEFAULT
 10
-11237.42836482444
 20
438.5391646779814
 30
0.0
 11
-11229.03498228584
 21
448.5519921064129
 31
0.0
  0
LINE
  5
E8
  8
DEFAULT
 10
-11245.47401825354
 20
428.2448436974739
 30
0.0
 11
-11237.42836482444
 21
438.5391646779814
 31
0.0
  0
LINE
  5
E9
  8
DEFAULT
 10
-11253.16250895698
 20
417.68109936821
 30
0.0
 11
-11245.47401825354
 21
428.2448436974739
 31
0.0
  0
LINE
  5
EA
  8
DEFAULT
 10
-11260.48482209577
 20
406.8603177953163
 30
0.0
 11
-11253.16250895698
 21
417.68109936821
 31
0.0
  0
LINE
  5
EB
  8
DEFAULT
 10
-11267.43237217813
 20
395.7951864628833
 30
0.0
 11
-11260.48482209577
 21
406.8603177953163
 31
0.0
  0
LINE
  5
EC
  8
DEFAULT
 10
-11273.99701312601
 20
384.4986793577524
 30
0.0
 11
-11267.43237217813
 21
395.7951864628833
 31
0.0
  0
LINE
  5
ED
  8
DEFAULT
 10
-11280.1710478265
 20
372.9840417573753
 30
0.0
 11
-11273.99701312601
 21
384.4986793577524
 31
0.0
  0
LINE
  5
EE
  8
DEFAULT
 10
-11285.94723715676
 20
361.2647746995817
 30
0.0
 11
-11280.1710478265
 21
372.9840417573753
 31
0.0
  0
LINE
  5
EF
  8
DEFAULT
 10
-11291.31880847197
 20
349.3546191524657
 30
0.0
 11
-11285.94723715676
 21
361.2647746995817
 31
0.0
  0
LINE
  5
F0
  8
DEFAULT
 10
-11296.27946354634
 20
337.267539902952
 30
0.0
 11
-11291.31880847197
 21
349.3546191524657
 31
0.0
  0
LINE
  5
F1
  8
DEFAULT
 10
-11300.82338595783
 20
325.0177091829303
 30
0.0
 11
-11296.27946354634
 21
337.267539902952
 31
0.0
  0
LINE
  5
F2
  8
DEFAULT
 10
-11304.945247908
 20
312.6194900521595
 30
0.0
 11
-11300.82338595783
 21
325.0177091829303
 31
0.0
  0
LINE
  5
F3
  8
DEFAULT
 10
-11308.64021646888
 20
300.0874195574247
 30
0.0
 11
-11304.945247908
 21
312.6194900521595
 31
0.0
  0
LINE
  5
F4
  8
DEFAULT
 10
-11311.90395924963
 20
287.4361916876906
 30
0.0
 11
-11308.64021646888
 21
300.0874195574247
 31
0.0
  0
LINE
  5
F5
  8
DEFAULT
 10
-11314.73264947636
 20
274.6806401452404
 30
0.0
 11
-11311.90395924963
 21
287.4361916876906
 31
0.0
  0
LINE
  5
F6
  8
DEFAULT
 10
-11317.122970479
 20
261.8357209529984
 30
0.0
 11
-11314.73264947636
 21
274.6806401452404
 31
0.0
  0
LINE
  5
F7
  8
DEFAULT
 10
-11319.07211958017
 20
248.9164949184299
 30
0.0
 11
-11317.122970479
 21
261.8357209529984
 31
0.0
  0
LINE
  5
F8
  8
DEFAULT
 10
-11320.57781138136
 20
235.9381099745814
 30
0.0
 11
-11319.07211958017
 21
248.9164949184299
 31
0.0
  0
LINE
  5
F9
  8
DEFAULT
 10
-11321.63828044254
 20
222.9157834189642
 30
0.0
 11
-11320.57781138136
 21
235.9381099745814
 31
0.0
  0
LINE
  5
FA
  8
DEFAULT
 10
-11322.25228335222
 20
209.8647840711066
 30
0.0
 11
-11321.63828044254
 21
222.9157834189642
 31
0.0
  0
LINE
  5
FB
  8
DEFAULT
 10
-11322.4191001853
 20
196.8004143696984
 30
0.0
 11
-11322.25228335222
 21
209.8647840711066
 31
0.0
  0
LINE
  5
FC
  8
DEFAULT
 10
-11322.13853534723
 20
183.7379924303139
 30
0.0
 11
-11322.4191001853
 21
196.8004143696984
 31
0.0
  0
LINE
  5
FD
  8
DEFAULT
 10
-11321.41091780334
 20
170.6928340847556
 30
0.0
 11
-11322.13853534723
 21
183.7379924303139
 31
0.0
  0
LINE
  5
FE
  8
DEFAULT
 10
-11320.2371006931
 20
157.6802349230743
 30
0.0
 11
-11321.41091780334
 21
170.6928340847556
 31
0.0
  0
LINE
  5
FF
  8
DEFAULT
 10
-11318.61846032985
 20
144.7154523593235
 30
0.0
 11
-11320.2371006931
 21
157.6802349230743
 31
0.0
  0
LINE
  5
100
  8
DEFAULT
 10
-11316.55689458703
 20
131.8136877420756
 30
0.0
 11
-11318.61846032985
 21
144.7154523593235
 31
0.0
  0
LINE
  5
101
  8
DEFAULT
 10
-11314.05482067287
 20
118.9900685306752
 30
0.0
 11
-11316.55689458703
 21
131.8136877420756
 31
0.0
  0
LINE
  5
102
  8
DEFAULT
 10
-11311.11517229628
 20
106.2596305581288
 30
0.0
 11
-11314.05482067287
 21
118.9900685306752
 31
0.0
  0
LINE
  5
103
  8
DEFAULT
 10
-11307.74139622693
 20
93.63730040142659
 30
0.0
 11
-11311.11517229628
 21
106.2596305581288
 31
0.0
  0
LINE
  5
104
  8
DEFAULT
 10
-11306.46344116919
 20
89.43631868274832
 30
0.0
 11
-11307.74139622693
 21
93.63730040142659
 31
0.0
  0
LINE
  5
105
  8
DEFAULT
 10
-11305.04336485309
 20
85.28122544832493
 30
0.0
 11
-11306.46344116919
 21
89.43631868274832
 31
0.0
  0
LINE
  5
106
  8
DEFAULT
 10
-11303.48280998333
 20
81.17682719416291
 30
0.0
 11
-11305.04336485309
 21
85.28122544832493
 31
0.0
  0
LINE
  5
107
  8
DEFAULT
 10
-11301.78358176627
 20
77.1278717737289
 30
0.0
 11
-11303.48280998333
 21
81.17682719416291
 31
0.0
  0
LINE
  5
108
  8
DEFAULT
 10
-11299.94764582175
 20
73.13904290576548
 30
0.0
 11
-11301.78358176627
 21
77.1278717737289
 31
0.0
  0
LINE
  5
109
  8
DEFAULT
 10
-11297.97712590927
 20
69.21495475629557
 30
0.0
 11
-11299.94764582175
 21
73.13904290576548
 31
0.0
  0
LINE
  5
10A
  8
DEFAULT
 10
-11295.87430147132
 20
65.36014660108407
 30
0.0
 11
-11297.97712590927
 21
69.21495475629557
 31
0.0
  0
LINE
  5
10B
  8
DEFAULT
 10
-11293.6416049966
 20
61.57907757472987
 30
0.0
 11
-11295.87430147132
 21
65.36014660108407
 31
0.0
  0
LINE
  5
10C
  8
DEFAULT
 10
-11291.28161920613
 20
57.87612151246373
 30
0.0
 11
-11293.6416049966
 21
61.57907757472987
 31
0.0
  0
LINE
  5
10D
  8
DEFAULT
 10
-11288.79707406568
 20
54.25556189061734
 30
0.0
 11
-11291.28161920613
 21
57.87612151246373
 31
0.0
  0
LINE
  5
10E
  8
DEFAULT
 10
-11286.19084362779
 20
50.72158687161728
 30
0.0
 11
-11288.79707406568
 21
54.25556189061734
 31
0.0
  0
LINE
  5
10F
  8
DEFAULT
 10
-11283.46594270717
 20
47.27828445923578
 30
0.0
 11
-11286.19084362779
 21
50.72158687161728
 31
0.0
  0
LINE
  5
110
  8
DEFAULT
 10
-11280.62552339324
 20
43.9296377697016
 30
0.0
 11
-11283.46594270717
 21
47.27828445923578
 31
0.0
  0
LINE
  5
111
  8
DEFAULT
 10
-11277.67287140386
 20
40.67952042414245
 30
0.0
 11
-11280.62552339324
 21
43.9296377697016
 31
0.0
  0
LINE
  5
112
  8
DEFAULT
 10
-11274.61140228453
 20
37.53169206768804
 30
0.0
 11
-11277.67287140386
 21
40.67952042414245
 31
0.0
  0
LINE
  5
113
  8
DEFAULT
 10
-11271.44465745738
 20
34.48979402041724
 30
0.0
 11
-11274.61140228453
 21
37.53169206768804
 31
0.0
  0
LINE
  5
114
  8
DEFAULT
 10
-11268.17630012452
 20
31.5573450651808
 30
0.0
 11
-11271.44465745738
 21
34.48979402041724
 31
0.0
  0
LINE
  5
115
  8
DEFAULT
 10
-11264.8101110306
 20
28.7377373771713
 30
0.0
 11
-11268.17630012452
 21
31.5573450651808
 31
0.0
  0
LINE
  5
116
  8
DEFAULT
 10
-11261.34998408931
 20
26.03423259994945
 30
0.0
 11
-11264.8101110306
 21
28.7377373771713
 31
0.0
  0
LINE
  5
117
  8
DEFAULT
 10
-11257.79992187903
 20
23.44995807246583
 30
0.0
 11
-11261.34998408931
 21
26.03423259994945
 31
0.0
  0
LINE
  5
118
  8
DEFAULT
 10
-11254.16403101273
 20
20.98790321144237
 30
0.0
 11
-11257.79992187903
 21
23.44995807246583
 31
0.0
  0
LINE
  5
119
  8
DEFAULT
 10
-11250.44651738761
 20
18.65091605329829
 30
0.0
 11
-11254.16403101273
 21
20.98790321144237
 31
0.0
  0
LINE
  5
11A
  8
DEFAULT
 10
-11246.65168131978
 20
16.44169995962137
 30
0.0
 11
-11250.44651738761
 21
18.65091605329829
 31
0.0
  0
LINE
  5
11B
  8
DEFAULT
 10
-11242.78391256979
 20
14.36281048999402
 30
0.0
 11
-11246.65168131978
 21
16.44169995962137
 31
0.0
  0
LINE
  5
11C
  8
DEFAULT
 10
-11238.84768526471
 20
12.41665244579383
 30
0.0
 11
-11242.78391256979
 21
14.36281048999402
 31
0.0
  0
LINE
  5
11D
  8
DEFAULT
 10
-11234.84755272253
 20
10.60547708838595
 30
0.0
 11
-11238.84768526471
 21
12.41665244579383
 31
0.0
  0
LINE
  5
11E
  8
DEFAULT
 10
-11230.78814218505
 20
8.931379534926933
 30
0.0
 11
-11234.84755272253
 21
10.60547708838595
 31
0.0
  0
LINE
  5
11F
  8
DEFAULT
 10
-11226.6741494652
 20
7.396296334791558
 30
0.0
 11
-11230.78814218505
 21
8.931379534926933
 31
0.0
  0
LINE
  5
120
  8
DEFAULT
 10
-11222.51033351506
 20
6.002003229426407
 30
0.0
 11
-11226.6741494652
 21
7.396296334791558
 31
0.0
  0
LINE
  5
121
  8
DEFAULT
 10
-11218.30151092083
 20
4.750113098221959
 30
0.0
 11
-11222.51033351506
 21
6.002003229426407
 31
0.0
  0
LINE
  5
122
  8
DEFAULT
 10
-11214.05255033115
 20
3.642074092778259
 30
0.0
 11
-11218.30151092083
 21
4.750113098221959
 31
0.0
  0
LINE
  5
123
  8
DEFAULT
 10
-11209.76836682515
 20
2.67916796172392
 30
0.0
 11
-11214.05255033115
 21
3.642074092778259
 31
0.0
  0
LINE
  5
124
  8
DEFAULT
 10
-11205.45391622687
 20
1.862508568024779
 30
0.0
 11
-11209.76836682515
 21
2.67916796172392
 31
0.0
  0
LINE
  5
125
  8
DEFAULT
 10
-11201.11418937248
 20
1.193040600498406
 30
0.0
 11
-11205.45391622687
 21
1.862508568024779
 31
0.0
  0
LINE
  5
126
  8
DEFAULT
 10
-11196.75420633699
 20
0.671538481024399
 30
0.0
 11
-11201.11418937248
 21
1.193040600498406
 31
0.0
  0
LINE
  5
127
  8
DEFAULT
 10
-11192.37901062724
 20
0.2986054687146407
 30
0.0
 11
-11196.75420633699
 21
0.671538481024399
 31
0.0
  0
LINE
  5
128
  8
DEFAULT
 10
-11187.99366334764
 20
0.0746729620801432
 30
0.0
 11
-11192.37901062724
 21
0.2986054687146407
 31
0.0
  0
LINE
  5
129
  8
DEFAULT
 10
-11183.60323734564
 20
0.0000000000001137
 30
0.0
 11
-11187.99366334764
 21
0.0746729620801432
 31
0.0
  0
LINE
  5
12A
  8
DEFAULT
 10
-10991.32250692308
 20
0.0
 30
0.0
 11
-11183.60323734564
 21
0.0000000000001137
 31
0.0
  0
CIRCLE
  5
12B
  8
DEFAULT
 10
-10991.32250692308
 20
380.6134227156235
 30
0.0
 40
7.5
  0
CIRCLE
  5
12C
  8
DEFAULT
 10
-11004.82250692308
 20
221.8800454954708
 30
0.0
 40
7.5
  0
CIRCLE
  5
12D
  8
DEFAULT
 10
-10977.82250692308
 20
221.8800454954708
 30
0.0
 40
7.5
  0
LINE
  5
12E
  8
DEFAULT
 10
-11012.32250692308
 20
322.2467341055471
 30
0.0
 11
-11012.32250692308
 21
280.2467341055471
 31
0.0
  0
LINE
  5
12F
  8
DEFAULT
 10
-10970.32250692308
 20
322.2467341055471
 30
0.0
 11
-11012.32250692308
 21
322.2467341055471
 31
0.0
  0
LINE
  5
130
  8
DEFAULT
 10
-10970.32250692308
 20
280.2467341055471
 30
0.0
 11
-10970.32250692308
 21
322.2467341055471
 31
0.0
  0
LINE
  5
131
  8
DEFAULT
 10
-11012.32250692308
 20
280.2467341055471
 30
0.0
 11
-10970.32250692308
 21
280.2467341055471
 31
0.0
  0
CIRCLE
  5
132
  8
DEFAULT
 10
-10991.32250692309
 20
126.2467341055465
 30
0.0
 40
4.5
  0
CIRCLE
  5
133
  8
DEFAULT
 10
-10991.32250692308
 20
476.2467341055458
 30
0.0
 40
4.5
  0
CIRCLE
  5
134
  8
DEFAULT
 10
-11142.87695258535
 20
388.746734105552
 30
0.0
 40
4.500000000000566
  0
CIRCLE
  5
135
  8
DEFAULT
 10
-11142.87695258536
 20
213.7467341055528
 30
0.0
 40
4.499999999999778
  0
CIRCLE
  5
136
  8
DEFAULT
 10
-10839.76806126081
 20
213.7467341055419
 30
0.0
 40
4.499999999999263
  0
CIRCLE
  5
137
  8
DEFAULT
 10
-10839.76806126081
 20
388.7467341055415
 30
0.0
 40
4.500000000000688
  0
ENDSEC
  0
EOF
